<svg width="23" height="22" viewBox="0 0 23 22" fill="none" xmlns="http://www.w3.org/2000/svg">
<path d="M22.7887 8.801C22.7658 8.68188 22.7183 8.56922 22.6494 8.47069C22.5805 8.37216 22.4918 8.29007 22.3893 8.22999L19.3266 6.43237L19.3143 2.87732C19.3139 2.75488 19.2877 2.63399 19.2376 2.52299C19.1874 2.41199 19.1145 2.31353 19.0237 2.2344C17.9128 1.26652 16.6334 0.524808 15.2536 0.0487094C15.145 0.0108323 15.0298 -0.00318499 14.9156 0.0075603C14.8013 0.0183056 14.6906 0.0535752 14.5904 0.111097L11.501 1.88968L8.4085 0.107925C8.30824 0.0500789 8.19732 0.014543 8.08289 0.00361428C7.96847 -0.00731441 7.85309 0.00660732 7.74421 0.0444796C6.36528 0.523612 5.08729 1.2682 3.97822 2.23863C3.88763 2.31764 3.81474 2.41593 3.76458 2.52674C3.71442 2.63754 3.68817 2.75823 3.68765 2.88049L3.67225 6.43872L0.609556 8.23634C0.507091 8.29642 0.418386 8.37851 0.34947 8.47704C0.280553 8.57557 0.233041 8.68822 0.210163 8.80735C-0.0700543 10.258 -0.0700543 11.7513 0.210163 13.202C0.233041 13.3211 0.280553 13.4338 0.34947 13.5323C0.418386 13.6308 0.507091 13.7129 0.609556 13.773L3.67225 15.5706L3.68457 19.1267C3.68495 19.2492 3.71112 19.3701 3.76129 19.4811C3.81145 19.5921 3.88441 19.6905 3.97514 19.7697C5.0861 20.7375 6.36548 21.4792 7.74524 21.9553C7.8539 21.9932 7.96905 22.0072 8.08329 21.9965C8.19752 21.9857 8.3083 21.9505 8.4085 21.893L11.501 20.1091L14.5934 21.8908C14.7158 21.9611 14.8538 21.9975 14.9939 21.9966C15.0836 21.9965 15.1727 21.9815 15.2577 21.9522C16.6363 21.4732 17.9142 20.7294 19.0237 19.7601C19.1143 19.6811 19.1872 19.5828 19.2374 19.472C19.2875 19.3612 19.3138 19.2405 19.3143 19.1183L19.3297 15.5601L22.3924 13.7624C22.4949 13.7024 22.5836 13.6203 22.6525 13.5217C22.7214 13.4232 22.7689 13.3105 22.7918 13.1914C23.0704 11.7419 23.0694 10.2501 22.7887 8.801ZM11.501 15.2291C10.6887 15.2291 9.89469 14.981 9.21932 14.5162C8.54395 14.0515 8.01756 13.3909 7.70672 12.618C7.39588 11.8451 7.31455 10.9947 7.47302 10.1742C7.63148 9.35373 8.02262 8.60007 8.59698 8.00854C9.17133 7.41701 9.90311 7.01417 10.6998 6.85096C11.4964 6.68776 12.3222 6.77152 13.0726 7.09166C13.823 7.41179 14.4644 7.95392 14.9157 8.64949C15.367 9.34506 15.6078 10.1628 15.6078 10.9994C15.6078 12.1212 15.1752 13.197 14.405 13.9902C13.6348 14.7834 12.5902 15.2291 11.501 15.2291Z" fill="url(#paint0_linear_25_2)"/>
<defs>
<linearGradient id="paint0_linear_25_2" x1="0" y1="11" x2="23" y2="11" gradientUnits="userSpaceOnUse">
<stop stop-color="#6363DB"/>
<stop offset="1" stop-color="#171A21"/>
</linearGradient>
</defs>
</svg>
