<svg width="20" height="22" viewBox="0 0 20 22" fill="none" xmlns="http://www.w3.org/2000/svg">
<path d="M10 22C10.6881 22.0009 11.3594 21.7895 11.9205 21.3952C12.4817 21.0009 12.9048 20.4433 13.1311 19.8H6.86889C7.09518 20.4433 7.51831 21.0009 8.07946 21.3952C8.6406 21.7895 9.31189 22.0009 10 22ZM17.7778 13.8446V8.8C17.7778 5.2613 15.35 2.2803 12.0611 1.3838C11.7356 0.572 10.94 0 10 0C9.06 0 8.26445 0.572 7.93889 1.3838C4.65 2.2814 2.22222 5.2613 2.22222 8.8V13.8446L0.325556 15.7223C0.117167 15.9285 6.29304e-05 16.2083 0 16.5V17.6C0 17.8917 0.117063 18.1715 0.325437 18.3778C0.533811 18.5841 0.816426 18.7 1.11111 18.7H18.8889C19.1836 18.7 19.4662 18.5841 19.6746 18.3778C19.8829 18.1715 20 17.8917 20 17.6V16.5C19.9999 16.2083 19.8828 15.9285 19.6744 15.7223L17.7778 13.8446Z" fill="url(#paint0_linear_2_11)"/>
<defs>
<linearGradient id="paint0_linear_2_11" x1="0" y1="11" x2="20" y2="11" gradientUnits="userSpaceOnUse">
<stop stop-color="#6363DB"/>
<stop offset="1" stop-color="#171A21"/>
</linearGradient>
</defs>
</svg>
